<svg width="23" height="49" viewBox="0 0 23 49" fill="none" xmlns="http://www.w3.org/2000/svg">
<path d="M11.3182 -3.64979e-06C10.2763 -3.74087e-06 9.43181 0.993755 9.43181 2.2197L9.43181 46.6137C9.43181 47.8396 10.2763 48.8334 11.3182 48.8334C12.36 48.8334 13.2045 47.8396 13.2045 46.6137L13.2045 2.2197C13.2045 0.993756 12.36 -3.55871e-06 11.3182 -3.64979e-06Z" fill="#EFC490"/>
<path d="M20.75 33.2955C20.2673 33.2955 19.7845 33.5122 19.4161 33.9456L11.3182 43.4746L3.2202 33.9456C2.48348 33.0787 1.28913 33.0787 0.552506 33.9456C-0.18412 34.8125 -0.184214 36.218 0.552505 37.0847L9.98433 48.1832C10.721 49.05 11.9153 49.0501 12.6521 48.1832L22.0839 37.0847C22.8206 36.2178 22.8206 34.8124 22.0839 33.9456C21.7155 33.5122 21.2327 33.2955 20.75 33.2955Z" fill="#EFC490"/>
</svg>
